<svg>
	<symbol id="aries" viewBox="0 0 960 960" xmlns="http://www.w3.org/2000/svg">
		<g>
			<path
				d="M468.006 458.921C497.757 339.011 531.035 211.913 623.274 124.131C726.707 24.9741 878.182 105.891 891.333 238.309C901.552 310.569 882.043 384.834 825.715 434.783C822.679 437.749 817.36 438.851 812.873 439.77C774.525 450.841 748.199 405.99 770.992 375.901C818.351 329.799 826.271 250.587 788.891 195.367C765.861 159.051 724.587 152.713 689.907 177.446C617.873 233.073 589.388 328.913 564.372 412.919C533.917 529.976 521.012 650.834 508.74 770.908C504.801 800.499 517.353 842.19 497.627 865.999C478.871 890.01 433.392 881.916 428.45 851.063C425.579 834.943 426.494 818.148 425.766 801.648C423.916 753.884 420.574 706.176 417.104 658.509C406.582 529.899 375.397 403.998 334.413 281.966C314.742 220.794 252.245 139.638 184.785 194.878C121.267 236.403 148.213 331.44 195.393 379.982C216.319 400.202 253.376 413.273 238.67 449.527C186.097 532.334 73.5902 361.01 71.3082 306.722C33.6822 167.109 207.072 31.4171 325.827 129.503C424.502 209.602 433.65 344.664 468.006 458.921Z"  />
		</g>
	</symbol>

	<symbol id="taurus" viewBox="0 0 48 48" xmlns="http://www.w3.org/2000/svg">
		<g>
			<path d="M42,3h-.5a8.1,8.1,0,0,0-5.9,2.6l-8,11.9A14.2,14.2,0,0,0,24,17a14.2,14.2,0,0,0-3.6.5L12.6,5.9l-.2-.3A8.1,8.1,0,0,0,6.5,3H6A2,2,0,0,0,6,7h.5A4,4,0,0,1,9.4,8.2l7.3,10.9a14,14,0,1,0,14.6,0L38.6,8.2A4,4,0,0,1,41.5,7H42a2,2,0,0,0,0-4ZM34,31A10,10,0,1,1,24,21,10,10,0,0,1,34,31Z"/>
		</g>
	</symbol>

	<symbol id="gemini" viewBox="0 0 48 48" xmlns="http://www.w3.org/2000/svg">
		<g>
			<path d="M33,34.1V11.9A26.5,26.5,0,0,0,43.4,5.4a1.9,1.9,0,0,0,0-2.8,1.9,1.9,0,0,0-2.8,0,23.6,23.6,0,0,1-33.2,0,1.9,1.9,0,0,0-2.8,0,1.9,1.9,0,0,0,0,2.8A26.5,26.5,0,0,0,15,11.9V34.1A26.5,26.5,0,0,0,4.6,40.6a1.9,1.9,0,0,0,0,2.8,1.9,1.9,0,0,0,2.8,0,23.6,23.6,0,0,1,33.2,0,1.9,1.9,0,0,0,2.8,0,1.9,1.9,0,0,0,0-2.8A26.5,26.5,0,0,0,33,34.1ZM19,33V13a27.3,27.3,0,0,0,5,.5,27.3,27.3,0,0,0,5-.5V33a27.3,27.3,0,0,0-5-.5A27.3,27.3,0,0,0,19,33Z"/>
		</g>
	</symbol>

	<symbol id="cancer" viewBox="0 0 960 960" xmlns="http://www.w3.org/2000/svg">
		<g>
			<path d="M578.572 684.766C568.468 667.19 555.962 651.092 549.341 632.857C515.385 544.107 578.662 438.194 668.74 415.862C759.603 392.32 866.724 447.61 878.505 545.365C899.837 719.801 687.842 760.526 555.245 768.112C423.27 775.284 290.637 767.679 164.198 726.418C129.146 716.119 62.6024 696.65 84.2344 647.967C103.1 611.788 142.896 635.151 171.506 644.602C303.051 684.487 441.829 701.049 578.572 684.766ZM798.921 566.902C796.526 487.844 676.94 469.817 641.486 539.689C612.697 581.498 632.529 634.352 683.857 641.03C694.086 643.115 705.983 640.875 714.785 645.277C730.39 653.082 741.241 644.728 753.222 638.67C779.224 622.933 797.972 599.807 798.921 566.902Z"/>
			<path d="M355.757 271.077C502.475 410.672 311.162 642.844 147.093 530.622C61.8835 476.309 61.1135 354.782 129.398 285.752C232.037 185.564 392.989 187.236 527.388 190.568C593.275 193.302 844.002 221.581 863.252 289.503C867.11 306.891 851.651 332.223 832.498 329.247C824.37 327.984 815.176 327.966 808.492 323.984C777.814 305.703 743.703 297.368 709.927 288.037C595.538 256.965 472.557 257.078 355.757 271.077ZM164.487 404.453C163.041 443.452 196.542 470.499 231.206 476.463C283.178 482.191 332.263 429.116 325.039 377.761C316.714 327.716 265.181 317.272 220.673 314.842C184.459 329.405 166.219 366.514 164.487 404.453Z"/>
		</g>
	</symbol>

	<symbol id="leo" viewBox="-20 0 190 190" xmlns="http://www.w3.org/2000/svg">
		<g>
			<path d="M101.35 176.72C87.99 176.72 80.66 169.72 80.66 157.94C80.66 142.25 96.07 104.74 96.07 92.0802C96.07 82.5902 92.07 75.3702 82.36 75.3702C72.65 75.3702 66.9 82.0702 66.9 89.3702C66.9 99.8302 76.84 115.89 76.84 123.95C76.84 140.66 65.47 149.67 51.03 149.67C33.94 149.67 24.77 136.37 24.77 124.4C24.77 111.74 33.36 97.2502 54.9 100.8C52.63 96.6202 51 92.6102 51 84.0902C51 71.0002 62.2 59.9102 82.24 59.9102C102.28 59.9102 112.9 74.1502 112.9 91.1202C112.9 105.46 97.38 143.71 97.38 154.53C97.38 157.88 100.14 160.08 104.69 160.08C109.69 160.08 116.09 157.55 118.69 156.08C119.8 158.9 124.9 165.58 124.9 165.58C120.29 170.35 108.59 176.72 101.35 176.72ZM58.59 116C52.48 114.58 41.91 114.72 41.91 124.53C41.91 129.23 46.43 134.05 51.11 134.05C63.48 134 60.61 118.6 58.59 116Z"/>
		</g>
	</symbol>

	<symbol id="virgo" viewBox="-20 0 190 190" xmlns="http://www.w3.org/2000/svg">
		<g>
			<path d="M122.2 168.53L118.95 178.53C109.88 178.19 102.66 175.6 98.95 167.67C93.8362 169.483 88.5908 170.9 83.26 171.91L80.67 160.12C85.9893 158.87 91.1841 157.14 96.19 154.95C96.19 154 96.12 153.01 96.12 151.95C96.12 140.67 96.44 112.19 96.44 101.48C96.44 85.2297 94.52 79.2497 87.5 79.2497C81.82 79.2497 80.27 82.3397 79.32 89.0697C79.45 90.9697 79.51 92.9797 79.51 95.1297C79.51 101.75 79.51 147.66 79.51 147.66L62.75 147.48C62.75 147.48 62.75 110.65 62.75 101.48C62.75 85.2297 61.68 79.2497 53.82 79.2497C47.82 79.2497 46.42 82.7097 45.47 90.2497L45.85 147.13L29.4 148L29.31 76.8897L28.19 65.7197L42.49 63.7197L44 69.8297C47.2 66.2597 52.08 63.7197 59.71 63.7197C66.71 63.7197 72.13 66.4897 75.49 72.9297C78.57 67.8197 83.87 63.7197 93.32 63.7197C105.7 63.7197 112.51 70.7997 113.08 92.1497C115.174 88.4344 117.825 85.062 120.94 82.1497L125.94 81.3997C133.94 87.8597 141.94 101.09 141.94 116.19C141.94 133.19 132.33 149.63 113.94 160.62C115.15 165 117.62 167.15 122.2 168.53ZM126.43 117.46C126.43 111.2 124.38 104.86 122.43 103.04C118.31 105.99 115.27 112.55 112.99 121.29C112.99 130.07 112.92 138.35 112.89 144.23C122.55 135.5 126.43 125.39 126.43 117.46Z"/>
		</g>
	</symbol>

	<symbol id="libra" viewBox="0 0 48 48" xmlns="http://www.w3.org/2000/svg">
		<g>
			<path d="M4,35H16.2a2.1,2.1,0,0,0,2-1.5,2.2,2.2,0,0,0-.9-2.2A12.9,12.9,0,0,1,11,20.1a13,13,0,1,1,26,0,12.9,12.9,0,0,1-6.3,11.2,2.2,2.2,0,0,0-.9,2.2,2.1,2.1,0,0,0,2,1.5H44a2,2,0,0,0,0-4H37.1a17,17,0,1,0-26.2,0H4a2,2,0,0,0,0,4Z"/>
        	<path d="M44,39H4a2,2,0,0,0,0,4H44a2,2,0,0,0,0-4Z"/>
		</g>
	</symbol>

	<symbol id="scorpio" viewBox="-20 0 190 190" xmlns="http://www.w3.org/2000/svg">
		<g>
			<path d="M147.72 149.24L131.17 175.63L127.09 165.91C123.27 168.66 118.09 170.51 110.94 170.51C96.34 170.51 88.94 161.32 88.94 139.69C88.94 128.41 89.25 112.01 89.25 101.29C89.25 85.0403 87.33 79.0603 80.32 79.0603C74.64 79.0603 73.08 82.1503 72.13 88.8903C72.2567 90.7769 72.3233 92.7769 72.33 94.8903C72.33 101.51 72.33 147.42 72.33 147.42L55.57 147.24C55.57 147.24 55.57 110.41 55.57 101.24C55.57 84.9903 54.5 79.0103 46.64 79.0103C40.64 79.0103 39.23 82.4803 38.29 90.0103L38.76 147L22.27 147.85L22.18 76.7003L21.06 65.5303L35.37 63.5303L36.85 69.6603C40.05 66.0903 44.92 63.5303 52.55 63.5303C59.6 63.5303 64.98 66.3003 68.34 72.7603C71.42 67.6403 76.71 63.5303 86.17 63.5303C99.11 63.5303 105.96 71.2603 105.96 94.9403C105.96 117.72 105.76 140.62 105.76 140.62C106.17 150.97 107.76 156.13 116.04 156.13C118.231 156.127 120.378 155.514 122.24 154.36L118 144.22L147.72 149.24Z" />
		</g>
	</symbol>

	<symbol id="sagittarius" viewBox="0 0 32 32" xmlns="http://www.w3.org/2000/svg">
		<g>
				<path d="M31.983,2.058c-0.01-0.243-0.051-0.489-0.146-0.718c-0.104-0.251-0.253-0.474-0.439-0.664	c-0.004-0.006-0.006-0.012-0.01-0.017l0,0c-0.193-0.194-0.425-0.347-0.68-0.453C30.453,0.1,30.184,0.043,29.91,0.043 c-0.001,0-0.001,0-0.002,0H18.747c-1.155,0-2.093,0.937-2.093,2.093c0,1.157,0.938,2.093,2.093,2.093h6.099l-9.998,9.967 l-3.593-3.729c-0.802-0.83-2.128-0.856-2.959-0.053c-0.833,0.801-0.858,2.125-0.056,2.959l3.642,3.777L0.615,28.383 c-0.818,0.814-0.82,2.141-0.004,2.959c0.408,0.411,0.944,0.615,1.481,0.615c0.534,0,1.069-0.204,1.478-0.611l11.215-11.181 l4.11,4.265c0.41,0.426,0.957,0.641,1.508,0.641c0.521,0,1.047-0.192,1.451-0.586c0.832-0.801,0.856-2.127,0.056-2.959 l-4.158-4.315l10.062-10.03v5.944c0,1.157,0.938,2.094,2.096,2.094c1.154,0,2.092-0.937,2.092-2.094V2.136 C32,2.107,31.985,2.085,31.983,2.058z"/>
		</g>
	</symbol>

	<symbol id="capricorn" viewBox="-20 0 190 190" xmlns="http://www.w3.org/2000/svg">
		<g>
				<path d="M114.93 155.08C111.115 155.098 107.344 154.272 103.886 152.661C100.428 151.05 97.3694 148.693 94.93 145.76C87.18 160.86 76.68 177.11 54.34 177.11L52.24 165.37C71.83 165.37 78.44 145.58 86.81 128.6C84.9562 120.416 84.09 112.04 84.23 103.65C84.23 86.7798 81.74 77.6498 75.23 77.6498C59.68 77.6498 60.63 115.65 62.5 147.12L44.27 147.68C47.55 115.15 43.65 85.1198 21.9 69.3798L29 59.7598C37 63.4198 47 71.8498 52.28 85.4898C56.28 70.7498 63.88 62.1098 74.22 62.1098C89.75 62.1098 99.02 75.1098 99.02 94.4398C99.02 98.8498 98.93 104.58 99.26 110.44C103.98 106.14 108.41 104.59 114.78 104.59C130.15 104.59 140.67 114.59 140.67 130.97C140.67 145.85 128.89 155.08 114.93 155.08ZM114.93 120.41C109.56 120.41 106.49 124.32 103.07 130.08C105.44 135.4 109.2 139.31 115.17 139.31C117.563 139.285 119.854 138.333 121.56 136.655C123.266 134.977 124.255 132.702 124.32 130.31C124.3 124.2 120.29 120.41 114.91 120.41H114.93Z" />
		</g>
	</symbol>

	<symbol id="aquarius" viewBox="0 0 960 960" xmlns="http://www.w3.org/2000/svg">
		<g>
			<path d="M271.751 640.312C226.551 674.53 184.595 709.975 141.287 746.073C129.007 756.337 101.392 754.666 90.0996 741.259C77.5286 726.334 75.8096 704.986 89.9806 691.102C111.719 669.805 134.429 649.452 157.414 629.489C258.379 542.227 287.367 510.493 373.133 638.115C413.844 621.994 446.812 592.006 480.207 564.425C539.971 518.328 588.657 581.479 628.476 622.677C667.109 596.819 693.47 548.154 747.099 556.094C782.972 559.267 806.134 581.2 827.305 606.669C842.707 625.197 857.537 644.205 872.434 663.148C881.444 674.604 882.503 695.198 875.099 707.172C864.795 723.835 846.655 732.344 829.902 728.754C801.237 722.728 773.862 669.842 750.799 648.236C741.367 637.588 738.197 638.282 727.838 647.794C706.294 667.578 684.842 687.435 659.234 702.201C595.249 737.026 569.858 685.53 531.258 642.583C526.328 636.71 522.553 637.537 517.226 642.204C469.333 680.218 414.073 731.262 348.388 722.375C309.525 711.869 295.369 669.664 271.751 640.312Z"/>
			<path d="M614.349 289.701C676.35 248.957 732.513 178.006 806.818 242.538C832.78 268.46 854.401 297.359 872.699 328.541C884.033 347.856 881.977 366.64 861.112 383.619C821.661 411.885 798.917 365.538 778.627 337.2C771.087 327.051 763.286 317.047 754.939 307.559C747.001 298.536 743.216 298.434 733.901 305.656C684.332 339.461 604.153 422.541 553.309 349.323C541.201 331.316 529.795 312.839 517.654 293.92C465.77 335.516 381.552 420.843 318.118 355.412C310.109 345.628 302.723 335.336 295.022 325.301C287.524 315.53 284.444 313.969 274.216 320.828C227.638 351.072 185.16 386.734 142.931 422.649C132.831 430.976 108.829 427.841 97.9923 420.409C78.5643 407.087 79.3102 373.829 97.2592 358.469C122.672 336.723 147.801 314.618 173.814 293.612C233.605 244.906 295.024 197.645 357.805 272.526C364.579 278.782 369.353 295.045 380.534 292.157C413.844 273.908 442.757 250.063 470.815 224.742C534.777 176.901 582.681 237.017 614.349 289.701Z"/>
		</g>
	</symbol>

	<symbol id="pisces" viewBox="0 0 48 48" xmlns="http://www.w3.org/2000/svg">
		<g>
				<path d="M43,22H33.7A23,23,0,0,1,40.4,7.4a1.9,1.9,0,0,0,0-2.8,1.9,1.9,0,0,0-2.8,0,27.3,27.3,0,0,0-8,17.4H18.4a27.3,27.3,0,0,0-8-17.4,1.9,1.9,0,0,0-2.8,0,1.9,1.9,0,0,0,0,2.8A23,23,0,0,1,14.3,22H5a2,2,0,0,0,0,4h9.3A23,23,0,0,1,7.6,40.6a1.9,1.9,0,0,0,0,2.8,1.9,1.9,0,0,0,2.8,0,27.3,27.3,0,0,0,8-17.4H29.6a27.3,27.3,0,0,0,8,17.4,1.9,1.9,0,0,0,2.8,0,1.9,1.9,0,0,0,0-2.8A23,23,0,0,1,33.7,26H43a2,2,0,0,0,0-4Z"/>
		</g>
	</symbol>

	<!-- stars -->

	<symbol id="ariesStars" viewBox="0 0 210 87" xmlns="http://www.w3.org/2000/svg">
		<g>
			<path d="M6 5L162.051 22.1975L206 83.3439" stroke="#E0BC75" stroke-width="5"  stroke-linejoin="round"/>
			<circle cx="162" cy="23" r="8.5" fill="#E0BC75" stroke="#FCFDFE" stroke-width="3"/>
			<circle cx="205" cy="82" r="4" fill="#E0BC75" stroke="#FCFDFE" stroke-width="2"/>
			<circle cx="5" cy="5" r="4" fill="#E0BC75" stroke="#FCFDFE" stroke-width="2"/>
		</g>
	</symbol>

	<symbol id="taurusStars" viewBox="0 0 134 93" xmlns="http://www.w3.org/2000/svg">
		<g>
			<path d="M25 7.5L59 27.5L76 47M76 47L93.5 65L113.5 79.5L129 88M76 47L43.5 51.5L11.5 35" stroke="#E0BC75" stroke-width="5" />
			<circle cx="59" cy="28" r="4" fill="#E0BC75" stroke="#FCFDFE" stroke-width="2"/>
			<circle cx="91" cy="62" r="4" fill="#E0BC75" stroke="#FCFDFE" stroke-width="2"/>
			<circle cx="112" cy="77" r="4" fill="#E0BC75" stroke="#FCFDFE" stroke-width="2"/>
			<circle cx="129" cy="88" r="4" fill="#E0BC75" stroke="#FCFDFE" stroke-width="2"/>
			<circle cx="28" cy="10" r="8.5" fill="#E0BC75" stroke="#FCFDFE" stroke-width="3"/>
			<circle cx="10" cy="33" r="8.5" fill="#E0BC75" stroke="#FCFDFE" stroke-width="3"/>
			<circle cx="43" cy="52" r="4" fill="#E0BC75" stroke="#FCFDFE" stroke-width="2"/>
			<circle cx="75" cy="47" r="8.5" fill="#E0BC75" stroke="#FCFDFE" stroke-width="3"/>
		</g>
	</symbol>

	<symbol id="geminiStars" viewBox="0 0 181 136" xmlns="http://www.w3.org/2000/svg">
		<g>
			<path d="M32 29.5L68.5 33.5M68.5 33.5L90 4M68.5 33.5L136.5 50.5M68.5 33.5L40.5 60L26 66.5M136.5 50.5L176 52M136.5 50.5L171 72.5M26 66.5L8.5 52M26 66.5L16 89M26 66.5L63 102.5L91.5 95.5M91.5 95.5L139 105.5M91.5 95.5L141.5 132" stroke="#E0BC75" stroke-width="5" />
			<circle cx="34" cy="28" r="8.5" fill="#E0BC75" stroke="#FCFDFE" stroke-width="3"/>
			<circle cx="10" cy="54" r="8.5" fill="#E0BC75" stroke="#FCFDFE" stroke-width="3"/>
			<circle cx="136" cy="50" r="8.5" fill="#E0BC75" stroke="#FCFDFE" stroke-width="3"/>
			<circle cx="16" cy="89" r="4" fill="#E0BC75" stroke="#FCFDFE" stroke-width="2"/>
			<circle cx="26" cy="67" r="4" fill="#E0BC75" stroke="#FCFDFE" stroke-width="2"/>
			<circle cx="42" cy="59" r="4" fill="#E0BC75" stroke="#FCFDFE" stroke-width="2"/>
			<circle cx="68" cy="33" r="4" fill="#E0BC75" stroke="#FCFDFE" stroke-width="2"/>
			<circle cx="89" cy="5" r="4" fill="#E0BC75" stroke="#FCFDFE" stroke-width="2"/>
			<circle cx="176" cy="52" r="4" fill="#E0BC75" stroke="#FCFDFE" stroke-width="2"/>
			<circle cx="171" cy="73" r="4" fill="#E0BC75" stroke="#FCFDFE" stroke-width="2"/>
			<circle cx="140" cy="105" r="4" fill="#E0BC75" stroke="#FCFDFE" stroke-width="2"/>
			<circle cx="141" cy="131" r="4" fill="#E0BC75" stroke="#FCFDFE" stroke-width="2"/>
			<circle cx="92" cy="96" r="4" fill="#E0BC75" stroke="#FCFDFE" stroke-width="2"/>
			<circle cx="63" cy="103" r="4" fill="#E0BC75" stroke="#FCFDFE" stroke-width="2"/>
		</g>
	</symbol>

	<symbol id="cancerStars" viewBox="0 0 166 96" xmlns="http://www.w3.org/2000/svg">
		<g>
			<path d="M36 5L69 47M69 47L97.5 72L160.5 90.5M69 47L41 56H5" stroke="#E0BC75" stroke-width="5" />
			<circle cx="5" cy="56" r="4" fill="#E0BC75" stroke="#FCFDFE" stroke-width="2"/>
			<circle cx="41" cy="56" r="4" fill="#E0BC75" stroke="#FCFDFE" stroke-width="2"/>
			<circle cx="36" cy="5" r="4" fill="#E0BC75" stroke="#FCFDFE" stroke-width="2"/>
			<circle cx="97" cy="71" r="4" fill="#E0BC75" stroke="#FCFDFE" stroke-width="2"/>
			<circle cx="161" cy="91" r="4" fill="#E0BC75" stroke="#FCFDFE" stroke-width="2"/>
			<circle cx="69" cy="46" r="8.5" fill="#E0BC75" stroke="#FCFDFE" stroke-width="3"/>
		</g>
	</symbol>

	<symbol id="leoStars" viewBox="0 0 167 126" xmlns="http://www.w3.org/2000/svg">
		<g>
			<path d="M120.5 41L35.5 64.5L10 116L48 101.5L160 84L147.5 49L120.5 41ZM120.5 41L123.5 23L147.5 4.5L160 13" stroke="#E0BC75" stroke-width="5" />
			<circle cx="147" cy="50" r="4" fill="#E0BC75" stroke="#FCFDFE" stroke-width="2"/>
			<circle cx="36" cy="65" r="4" fill="#E0BC75" stroke="#FCFDFE" stroke-width="2"/>
			<circle cx="123" cy="23" r="4" fill="#E0BC75" stroke="#FCFDFE" stroke-width="2"/>
			<circle cx="147" cy="5" r="4" fill="#E0BC75" stroke="#FCFDFE" stroke-width="2"/>
			<circle cx="160" cy="13" r="4" fill="#E0BC75" stroke="#FCFDFE" stroke-width="2"/>
			<circle cx="10" cy="116" r="8.5" fill="#E0BC75" stroke="#FCFDFE" stroke-width="3"/>
			<circle cx="48" cy="101" r="8.5" fill="#E0BC75" stroke="#FCFDFE" stroke-width="3"/>
			<circle cx="157" cy="85" r="8.5" fill="#E0BC75" stroke="#FCFDFE" stroke-width="3"/>
		</g>
	</symbol>

	<symbol id="maidenStars" viewBox="0 0 175 106" xmlns="http://www.w3.org/2000/svg">
		<g>
			<path d="M169 99L137 95L104.5 83.5M104.5 83.5L11.5 95L34.5 44L82 47.5M104.5 83.5L82 47.5M82 47.5L89.5 10" stroke="#E0BC75" stroke-width="5" />
			<circle cx="35" cy="44" r="4" fill="#E0BC75" stroke="#FCFDFE" stroke-width="2"/>
			<circle cx="81" cy="48" r="4" fill="#E0BC75" stroke="#FCFDFE" stroke-width="2"/>
			<circle cx="138" cy="96" r="4" fill="#E0BC75" stroke="#FCFDFE" stroke-width="2"/>
			<circle cx="170" cy="99" r="4" fill="#E0BC75" stroke="#FCFDFE" stroke-width="2"/>
			<circle cx="10" cy="96" r="8.5" fill="#E0BC75" stroke="#FCFDFE" stroke-width="3"/>
			<circle cx="104" cy="84" r="8.5" fill="#E0BC75" stroke="#FCFDFE" stroke-width="3"/>
			<circle cx="90" cy="10" r="8.5" fill="#E0BC75" stroke="#FCFDFE" stroke-width="3"/>
		</g>
	</symbol>

	<symbol id="libraStars" viewBox="0 0 87 141" xmlns="http://www.w3.org/2000/svg">
		<g>
			<path d="M62.5 114.5L80 53M80 53L38.5 9.5L12.5 41.5M80 53L12.5 41.5M12.5 41.5L14.5 117L9.5 130.5" stroke="#E0BC75" stroke-width="5" />
			<circle cx="63" cy="114" r="4" fill="#E0BC75" stroke="#FCFDFE" stroke-width="2"/>
			<circle cx="13" cy="41" r="4" fill="#E0BC75" stroke="#FCFDFE" stroke-width="2"/>
			<circle cx="14" cy="116" r="4" fill="#E0BC75" stroke="#FCFDFE" stroke-width="2"/>
			<circle cx="39" cy="10" r="8.5" fill="#E0BC75" stroke="#FCFDFE" stroke-width="3"/>
			<circle cx="77" cy="52" r="8.5" fill="#E0BC75" stroke="#FCFDFE" stroke-width="3"/>
			<circle cx="10" cy="131" r="8.5" fill="#E0BC75" stroke="#FCFDFE" stroke-width="3"/>
		</g>
	</symbol>

	<symbol id="scorpioStars" viewBox="0 0 177 144" xmlns="http://www.w3.org/2000/svg">
		<g>
			<path d="M17 77L4 100.5L29.5 137L73 138.5L115 131.5L122.5 100.5L120 77L126 54.5L131.5 43L146 33.5M146 33.5L169.5 19M146 33.5L149.5 5.5M146 33.5L171.5 38.5" stroke="#E0BC75" stroke-width="5" />
			<circle cx="133" cy="41" r="8.5" fill="#E0BC75" stroke="#FCFDFE" stroke-width="3"/>
			<circle cx="126" cy="55" r="4" fill="#E0BC75" stroke="#FCFDFE" stroke-width="2"/>
			<circle cx="120" cy="77" r="4" fill="#E0BC75" stroke="#FCFDFE" stroke-width="2"/>
			<circle cx="122" cy="101" r="4" fill="#E0BC75" stroke="#FCFDFE" stroke-width="2"/>
			<circle cx="114" cy="130" r="4" fill="#E0BC75" stroke="#FCFDFE" stroke-width="2"/>
			<circle cx="73" cy="139" r="4" fill="#E0BC75" stroke="#FCFDFE" stroke-width="2"/>
			<circle cx="30" cy="137" r="4" fill="#E0BC75" stroke="#FCFDFE" stroke-width="2"/>
			<circle cx="5" cy="101" r="4" fill="#E0BC75" stroke="#FCFDFE" stroke-width="2"/>
			<circle cx="17" cy="77" r="4" fill="#E0BC75" stroke="#FCFDFE" stroke-width="2"/>
			<circle cx="148" cy="32" r="4" fill="#E0BC75" stroke="#FCFDFE" stroke-width="2"/>
			<circle cx="172" cy="39" r="4" fill="#E0BC75" stroke="#FCFDFE" stroke-width="2"/>
			<circle cx="170" cy="18" r="4" fill="#E0BC75" stroke="#FCFDFE" stroke-width="2"/>
			<circle cx="150" cy="5" r="4" fill="#E0BC75" stroke="#FCFDFE" stroke-width="2"/>
		</g>
	</symbol>

	<symbol id="sagittariusStars" viewBox="0 0 162 113" xmlns="http://www.w3.org/2000/svg">
		<g>
			<path d="M5 84.5L30 70.5L79 75M79 75L71.5 107.5M79 75L109.5 66.5M109.5 66.5L157 95M109.5 66.5L95.5 42L101 24M101 24L86 5L71.5 16.5M101 24L146.5 5L157 14.5" stroke="#E0BC75" stroke-width="5" />
			<circle cx="102" cy="24" r="8.5" fill="#E0BC75" stroke="#FCFDFE" stroke-width="3"/>
			<circle cx="79" cy="75" r="8.5" fill="#E0BC75" stroke="#FCFDFE" stroke-width="3"/>
			<circle cx="109" cy="66" r="8.5" fill="#E0BC75" stroke="#FCFDFE" stroke-width="3"/>
			<circle cx="30" cy="70" r="4" fill="#E0BC75" stroke="#FCFDFE" stroke-width="2"/>
			<circle cx="71" cy="108" r="4" fill="#E0BC75" stroke="#FCFDFE" stroke-width="2"/>
			<circle cx="71" cy="17" r="4" fill="#E0BC75" stroke="#FCFDFE" stroke-width="2"/>
			<circle cx="86" cy="5" r="4" fill="#E0BC75" stroke="#FCFDFE" stroke-width="2"/>
			<circle cx="95" cy="42" r="4" fill="#E0BC75" stroke="#FCFDFE" stroke-width="2"/>
			<circle cx="146" cy="5" r="4" fill="#E0BC75" stroke="#FCFDFE" stroke-width="2"/>
			<circle cx="156" cy="14" r="4" fill="#E0BC75" stroke="#FCFDFE" stroke-width="2"/>
			<circle cx="157" cy="95" r="4" fill="#E0BC75" stroke="#FCFDFE" stroke-width="2"/>
			<circle cx="5" cy="85" r="4" fill="#E0BC75" stroke="#FCFDFE" stroke-width="2"/>
		</g>
	</symbol>

	<symbol id="capricornStars" viewBox="0 0 192 138" xmlns="http://www.w3.org/2000/svg">
		<g>
			<path d="M172.5 29L150.5 62.5L113.5 116.5L101.5 132.5L74 110.5L43.5 77L10.5 25.5L24 29H60.5L104.5 35.5L172.5 29ZM172.5 29L180 10" stroke="#E0BC75" stroke-width="5"/>
			<circle cx="10" cy="25" r="8.5" fill="#E0BC75" stroke="#FCFDFE" stroke-width="3"/>
			<circle cx="182" cy="10" r="8.5" fill="#E0BC75" stroke="#FCFDFE" stroke-width="3"/>
			<circle cx="172" cy="30" r="8.5" fill="#E0BC75" stroke="#FCFDFE" stroke-width="3"/>
			<circle cx="151" cy="62" r="4" fill="#E0BC75" stroke="#FCFDFE" stroke-width="2"/>
			<circle cx="101" cy="133" r="4" fill="#E0BC75" stroke="#FCFDFE" stroke-width="2"/>
			<circle cx="75" cy="112" r="4" fill="#E0BC75" stroke="#FCFDFE" stroke-width="2"/>
			<circle cx="43" cy="79" r="4" fill="#E0BC75" stroke="#FCFDFE" stroke-width="2"/>
			<circle cx="61" cy="29" r="4" fill="#E0BC75" stroke="#FCFDFE" stroke-width="2"/>
			<circle cx="26" cy="29" r="4" fill="#E0BC75" stroke="#FCFDFE" stroke-width="2"/>
			<circle cx="105" cy="35" r="4" fill="#E0BC75" stroke="#FCFDFE" stroke-width="2"/>
		</g>
	</symbol>

	<symbol id="aquariusStars" viewBox="0 0 178 137" xmlns="http://www.w3.org/2000/svg">
		<g>
			<path d="M5 130L27.5 96.5L36 76.5L19 43.5L48 6M61.5 6L70 15.5L88.5 9L126.5 33.5L172.5 48" stroke="#E0BC75" stroke-width="5"/>
			<circle cx="89" cy="10" r="8.5" fill="#E0BC75" stroke="#FCFDFE" stroke-width="3"/>
			<circle cx="125" cy="34" r="8.5" fill="#E0BC75" stroke="#FCFDFE" stroke-width="3"/>
			<circle cx="173" cy="49" r="4" fill="#E0BC75" stroke="#FCFDFE" stroke-width="2"/>
			<circle cx="71" cy="15" r="4" fill="#E0BC75" stroke="#FCFDFE" stroke-width="2"/>
			<circle cx="61" cy="5" r="4" fill="#E0BC75" stroke="#FCFDFE" stroke-width="2"/>
			<circle cx="48" cy="5" r="4" fill="#E0BC75" stroke="#FCFDFE" stroke-width="2"/>
			<circle cx="20" cy="44" r="4" fill="#E0BC75" stroke="#FCFDFE" stroke-width="2"/>
			<circle cx="35" cy="76" r="4" fill="#E0BC75" stroke="#FCFDFE" stroke-width="2"/>
			<circle cx="28" cy="96" r="4" fill="#E0BC75" stroke="#FCFDFE" stroke-width="2"/>
			<circle cx="5" cy="132" r="4" fill="#E0BC75" stroke="#FCFDFE" stroke-width="2"/>
		</g>
	</symbol>

	<symbol id="piscesStars" viewBox="0 0 191 140" xmlns="http://www.w3.org/2000/svg">
		<g>
			<path d="M79 5L68 20.5L75 38V65.5L51.5 82.5L34 103L10 130.5L27 126.5L45 115.5L55 113.5L84 105L96.5 103L108 105L141 108L156 111M156 111L169 105L182 109.5L186.5 122.5L179.5 132.5L167 130.5L156 111Z" stroke="#E0BC75" stroke-width="5" stroke-linecap="square"/>
			<circle cx="157" cy="111" r="4" fill="#E0BC75" stroke="#FCFDFE" stroke-width="2"/>
			<circle cx="170" cy="105" r="4" fill="#E0BC75" stroke="#FCFDFE" stroke-width="2"/>
			<circle cx="182" cy="109" r="4" fill="#E0BC75" stroke="#FCFDFE" stroke-width="2"/>
			<circle cx="186" cy="122" r="4" fill="#E0BC75" stroke="#FCFDFE" stroke-width="2"/>
			<circle cx="180" cy="133" r="4" fill="#E0BC75" stroke="#FCFDFE" stroke-width="2"/>
			<circle cx="167" cy="130" r="4" fill="#E0BC75" stroke="#FCFDFE" stroke-width="2"/>
			<circle cx="96" cy="103" r="4" fill="#E0BC75" stroke="#FCFDFE" stroke-width="2"/>
			<circle cx="83" cy="105" r="4" fill="#E0BC75" stroke="#FCFDFE" stroke-width="2"/>
			<circle cx="57" cy="113" r="4" fill="#E0BC75" stroke="#FCFDFE" stroke-width="2"/>
			<circle cx="45" cy="116" r="4" fill="#E0BC75" stroke="#FCFDFE" stroke-width="2"/>
			<circle cx="27" cy="127" r="4" fill="#E0BC75" stroke="#FCFDFE" stroke-width="2"/>
			<circle cx="74" cy="64" r="4" fill="#E0BC75" stroke="#FCFDFE" stroke-width="2"/>
			<circle cx="68" cy="20" r="4" fill="#E0BC75" stroke="#FCFDFE" stroke-width="2"/>
			<circle cx="79" cy="5" r="4" fill="#E0BC75" stroke="#FCFDFE" stroke-width="2"/>
			<circle cx="142" cy="108" r="8.5" fill="#E0BC75" stroke="#FCFDFE" stroke-width="3"/>
			<circle cx="111" cy="105" r="8.5" fill="#E0BC75" stroke="#FCFDFE" stroke-width="3"/>
			<circle cx="10" cy="130" r="8.5" fill="#E0BC75" stroke="#FCFDFE" stroke-width="3"/>
			<circle cx="51" cy="82" r="8.5" fill="#E0BC75" stroke="#FCFDFE" stroke-width="3"/>
			<circle cx="75" cy="38" r="8.5" fill="#E0BC75" stroke="#FCFDFE" stroke-width="3"/>
		</g>
	</symbol>
</svg>